<?xml version="1.0" encoding="utf-8"?>
<!-- Generator: Adobe Illustrator 24.1.1, SVG Export Plug-In . SVG Version: 6.00 Build 0)  -->
<svg version="1.1" id="Laag_1" xmlns="http://www.w3.org/2000/svg" xmlns:xlink="http://www.w3.org/1999/xlink" x="0px" y="0px"
	 viewBox="0 0 200 200" style="enable-background:new 0 0 200 200;" xml:space="preserve">
<style type="text/css">
	.st0{fill:#05B3DD;}
	.st1{fill:#ECCC68;}
	.st2{fill:#12B0DB;}
	.st3{fill:#EACA68;}
	.st4{fill:#13AFD9;}
</style>
<g>
	<path class="st0" d="M42.1,80.3c-1.9-0.5-3.9-0.4-5.9,0.4c-7.6,2.9-7.9,11.2-7.5,18.2c-2.4,0-4.4,0-6.4,0c0,1.4,0,2.6,0,4.1
		c2.1,0,4.1,0,6.2,0c0,2.1,0,3.8,0,5.7c-2.5,0-4.7-0.1-6.9,0c-6.3,0.2-11.1,5.2-11,11.5c0.1,6.2,5,11.1,11.1,11.2
		c6.2,0,11.1-4.9,11.2-11.3c0-2.3,0-4.6,0-7c2.2,0,4.4-0.2,6.5-0.3c0-1.5,0-2.7,0-4.2c-2.2,0-4.3,0-6.4,0c0-1.9,0-3.6,0-5.7
		c2.6,0,5,0.1,7.4,0c5.7-0.2,10.3-4.7,10.6-10.4C51.4,86.9,47.3,81.6,42.1,80.3z M28.6,120.7c-0.2,3.6-3.2,6.3-6.7,6.5
		c-3.4,0.1-6.5-2.5-7.1-6.1c-0.6-3.2,1.5-6.7,4.8-7.7c0.6-0.2,1.1-0.4,1.7-0.4c2.3,0,4.7,0,7.4,0C28.7,115.7,28.8,118.2,28.6,120.7z
		 M40.2,98.7c-2.3,0.2-4.6,0-7.3,0c0-2.7-0.1-5.1,0-7.4c0.3-4.1,3.5-7.1,7.2-6.9c3.6,0.2,6.6,3.2,6.7,6.8
		C47,95.2,44.3,98.3,40.2,98.7z"/>
</g>
<path class="st1" d="M72,80.2c0,0.7-0.1,1.3-0.4,1.9c-0.4,1-1.2,1.8-2.2,2.2c-0.2,0.1-0.4,0.2-0.5,0.2c-0.2,0.1-0.4,0.1-0.6,0.2
	c0,0,0,0,0,0c-0.1,0-0.2,0-0.3,0c0,0,0,0-0.1,0c0,0-0.1,0-0.1,0c-0.1,0-0.1,0-0.2,0c-0.1,0-0.1,0-0.2,0c0,0-0.1,0-0.1,0
	c0,0,0,0-0.1,0c-0.1,0-0.2,0-0.3,0c-0.1,0-0.1,0-0.2,0c-0.2,0-0.4-0.1-0.7-0.2c-0.1,0-0.2-0.1-0.4-0.2c0,0-0.1,0-0.1-0.1
	c-0.1-0.1-0.2-0.1-0.3-0.2c-0.5-0.3-0.9-0.7-1.3-1.1c-0.2-0.3-0.4-0.6-0.5-0.9c-0.2-0.6-0.4-1.2-0.4-1.8c0-2.5,2-4.5,4.5-4.5
	S72,77.8,72,80.2z"/>
<path class="st1" d="M95.2,72.8c0,1.5-0.3,2.9-0.9,4.2c-1,2.2-2.8,4-5,5c-0.4,0.2-0.8,0.3-1.2,0.5c-0.5,0.2-1,0.3-1.5,0.3
	c0,0,0,0,0,0c-0.2,0-0.5,0.1-0.7,0.1c-0.1,0-0.1,0-0.2,0c-0.1,0-0.2,0-0.2,0c-0.2,0-0.3,0-0.5,0c-0.2,0-0.3,0-0.5,0
	c-0.1,0-0.1,0-0.2,0c-0.1,0-0.1,0-0.2,0c-0.3,0-0.5-0.1-0.8-0.1c-0.1,0-0.2,0-0.4-0.1c-0.5-0.1-1-0.2-1.5-0.4
	c-0.3-0.1-0.6-0.2-0.8-0.3c-0.1,0-0.2-0.1-0.3-0.1c-0.2-0.1-0.5-0.2-0.7-0.4c-1.1-0.7-2.1-1.5-2.9-2.6c-0.5-0.6-0.9-1.3-1.2-2
	c-0.6-1.3-0.9-2.7-0.9-4.1c0-5.6,4.6-10.2,10.2-10.2S95.2,67.2,95.2,72.8z"/>
<path class="st1" d="M77,85.7c0,0.3-0.1,0.6-0.2,0.9c-0.2,0.5-0.6,0.8-1,1c-0.1,0-0.2,0.1-0.3,0.1c-0.1,0-0.2,0.1-0.3,0.1
	c0,0,0,0,0,0c-0.1,0-0.1,0-0.2,0c0,0,0,0,0,0c0,0,0,0,0,0c0,0-0.1,0-0.1,0c0,0-0.1,0-0.1,0c0,0,0,0,0,0c0,0,0,0,0,0
	c-0.1,0-0.1,0-0.2,0c0,0,0,0-0.1,0c-0.1,0-0.2-0.1-0.3-0.1c-0.1,0-0.1,0-0.2-0.1c0,0,0,0-0.1,0c0,0-0.1-0.1-0.1-0.1
	c-0.2-0.1-0.4-0.3-0.6-0.5c-0.1-0.1-0.2-0.3-0.2-0.4c-0.1-0.3-0.2-0.5-0.2-0.9c0-1.2,0.9-2.1,2.1-2.1C76.1,83.6,77,84.5,77,85.7z"/>
<path class="st1" d="M175,144.3c0,1.3-0.3,2.6-0.8,3.7c-0.9,1.9-2.4,3.5-4.4,4.4c-0.3,0.2-0.7,0.3-1.1,0.4c-0.4,0.1-0.8,0.2-1.3,0.3
	c0,0,0,0,0,0c-0.2,0-0.4,0.1-0.7,0.1c0,0-0.1,0-0.1,0c-0.1,0-0.1,0-0.2,0c-0.1,0-0.3,0-0.4,0c-0.1,0-0.3,0-0.4,0c-0.1,0-0.1,0-0.2,0
	c0,0-0.1,0-0.1,0c-0.2,0-0.5,0-0.7-0.1c-0.1,0-0.2,0-0.3-0.1c-0.5-0.1-0.9-0.2-1.3-0.4c-0.2-0.1-0.5-0.2-0.7-0.3
	c-0.1,0-0.2-0.1-0.2-0.1c-0.2-0.1-0.4-0.2-0.6-0.3c-1-0.6-1.8-1.4-2.5-2.3c-0.4-0.5-0.8-1.1-1-1.8c-0.5-1.1-0.8-2.3-0.8-3.6
	c0-4.9,4-9,9-9S175,139.4,175,144.3z"/>
<path class="st1" d="M153,138.5c0,0.5-0.1,0.9-0.3,1.3c-0.3,0.7-0.8,1.2-1.5,1.5c-0.1,0.1-0.2,0.1-0.4,0.1c-0.1,0-0.3,0.1-0.4,0.1
	c0,0,0,0,0,0c-0.1,0-0.2,0-0.2,0c0,0,0,0,0,0c0,0,0,0-0.1,0c0,0-0.1,0-0.1,0c0,0-0.1,0-0.1,0c0,0,0,0-0.1,0c0,0,0,0,0,0
	c-0.1,0-0.2,0-0.2,0c0,0-0.1,0-0.1,0c-0.2,0-0.3-0.1-0.5-0.1c-0.1,0-0.2-0.1-0.3-0.1c0,0-0.1,0-0.1,0c-0.1,0-0.1-0.1-0.2-0.1
	c-0.3-0.2-0.6-0.5-0.9-0.8c-0.1-0.2-0.3-0.4-0.4-0.6c-0.2-0.4-0.3-0.8-0.3-1.3c0-1.7,1.4-3.1,3.1-3.1S153,136.8,153,138.5z"/>
<g>
	<path class="st2" d="M39.4,113.1c0,0,0-3.1,0-4.5c-2.2,0-4.3,0-6.4,0c0-1.9,0-3.5,0-5.5c2.6,0,5,0.1,7.4,0
		c5.7-0.2,10.3-4.7,10.6-10.4c0.3-5.6-3.7-10.9-8.9-12.2c-1.9-0.5-3.9-0.4-5.9,0.4c-7.6,2.9-7.9,11.2-7.5,18.2c-2.4,0-4.4,0-6.4,0
		c0,1.4,0,2.6,0,4.1c2.1,0,4.1,0,6.2,0c0,2.1,0,3.7,0,5.6c-2.5,0-4.9,0-7.1,0.1c-6.3,0.2-10.9,5.3-10.9,11.7
		c0.1,6.2,5,11.1,11.1,11.2c6.2,0,11.1-4.9,11.2-11.3c0-2.3,0.1-4.8,0.1-7.2L39.4,113.1z M28.6,120.9c-0.2,3.6-3.2,6.3-6.7,6.5
		c-3.4,0.1-6.5-2.5-7.1-6.1c-0.6-3.2,1.5-6.7,4.8-7.7c0.6-0.2,1.1-0.4,1.7-0.4c2.3,0,4.6,0,7.3,0C28.6,115.9,28.8,118.4,28.6,120.9z
		 M40.2,98.8c-2.3,0.2-4.6,0-7.3,0c0-2.7-0.1-5.1,0-7.4c0.3-4.1,3.5-7.1,7.2-6.9c3.6,0.2,6.6,3.2,6.7,6.8
		C47,95.3,44.3,98.5,40.2,98.8z"/>
</g>
<g>
	<path class="st3" d="M132,104.9h2.8l6.8,17h-3.9l-1.3-3.6h-6l-1.3,3.6h-3.8L132,104.9z M133.3,109.9l-1.9,5.3h3.8L133.3,109.9z"/>
	<path class="st3" d="M143.2,104.9h5.2l3.6,11.1h0l3.6-11.1h5.2v17h-3.4v-13h0l-4.1,13h-2.6l-3.9-13h0v13h-3.4V104.9z"/>
	<path class="st3" d="M164,104.9h10.6v3.5h-7.1v3.2h6.7v3.5h-6.7v3.5h7.5v3.5h-11V104.9z"/>
</g>
<g>
	<path class="st4" d="M94.1,117.7c-1.3,2.8-5,4.7-8.1,4.2c-4.5-0.7-7.7-5.4-6.9-10.2c0.6-3.3,2.2-5.6,5.3-6.9
		c2.1-0.8,4.1-0.6,6.1,0.4c2.9,1.4,5.2,5.6,4.5,9.3c-4.1,0-8.2,0-12.3,0c-0.1,1.4,1.5,3,2.5,3.4c1.6,0.7,3.9,0.5,5.8-1.7
		C92,116.7,93,117.2,94.1,117.7z M83,111.1c2.7,0,5.5,0,8.2,0c-0.9-2.3-2.8-3.2-4.4-3.1C84.7,108.1,83.2,109.8,83,111.1z"/>
	<path class="st4" d="M62.2,121.8c-1.4,0-2.7,0-4.1,0c0-7.2,0-14.4,0-21.6c4.5,0,9.1,0,13.6,0c0,1.2,0,2.4,0,3.7c-3.2,0-6.3,0-9.5,0
		c0,1.8,0,3.5,0,5.3c2.5,0,5,0,7.6,0c0,1.3,0,2.5,0,3.7c-2.5,0-5,0-7.6,0C62.2,115.9,62.2,118.8,62.2,121.8z"/>
	<path class="st4" d="M102.5,116.1c-1.3,2-2.4,3.9-3.6,5.7c-1.5,0-2.9,0-4.5,0c2-3,3.9-5.8,5.8-8.7c-1.9-2.8-3.7-5.6-5.6-8.4
		c1.6,0,3.1,0,4.6,0c1.2,1.6,2.2,3.5,3.4,5.3c1.1-1.8,2.2-3.5,3.3-5.3c1.5,0,3,0,4.6,0c-1.9,2.8-3.7,5.5-5.6,8.3
		c1.9,2.9,3.9,5.8,5.8,8.8c-1.6,0-3.1,0-4.7,0C104.9,120,103.8,118.1,102.5,116.1z"/>
	<path class="st4" d="M110.7,119.7c0.6-0.9,1.1-1.7,1.6-2.5c0.1-0.1,0.2-0.1,0.3-0.2c1,0.6,2,1.2,3.1,1.5c0.9,0.3,1.9,0.4,2.8,0.3
		c1.1-0.1,1.7-0.8,1.5-1.8c-0.1-0.7-0.7-1.1-1.3-1.3c-1.2-0.5-2.5-0.8-3.8-1.3c-1.4-0.5-2.7-1.3-3.3-2.9c-1-2.9,0.5-5.9,3.3-6.8
		c2.5-0.8,6.2-0.1,8.4,1.6c-0.5,1-1,1.9-1.6,3c-1.1-0.6-2.2-1.2-3.5-1.4c-0.6-0.1-1.1-0.2-1.7-0.1c-0.7,0.1-1.2,0.5-1.4,1.2
		c-0.2,0.5,0.2,1.2,0.9,1.6c0.8,0.4,1.6,0.7,2.4,1c1.2,0.4,2.3,0.8,3.4,1.5c1.7,1.1,2.1,2.8,1.8,4.7c-0.3,1.8-1.2,3.1-2.9,3.8
		c-2.8,1.1-5.5,0.7-8.1-0.4C112.1,120.7,111.4,120.2,110.7,119.7z"/>
	<path class="st4" d="M73.2,100.2c1.4,0,2.7,0,3.9,0c0.1,0.7,0.1,20.8,0,21.6c-1.3,0-2.6,0-4,0C73.2,114.6,73.2,107.4,73.2,100.2z"
		/>
</g>
</svg>
